# xmcd
#
# Track frame offsets: 
#        150
#        16044
#        32152
#        51419
#        163296
#        195370
#        208984
#        223731
#        245489
#        267363
#        287696
#        300617
#        313297
#        330437
#        338476
#
# Disc length: 4625 seconds
#
# Revision: 0
# Processed by: cddbd v1.5.2PL0 Copyright (c) Steve Scherf et al.
# Submitted via: ExactAudioCopy v1.0b3
#
DISCID=e0120f0f
DTITLE=Led Zeppelin - Alts and Takes Vol. 2 Led Zeppelin III
DYEAR=2012
DGENRE=Rock
TTITLE0=Celebration Day (Instrumental)
TTITLE1=Hey Hey What Can I Do (Instrumental)
TTITLE2=Out on the Tiles (Instrumental)
TTITLE3=Jennings Farm Blues (takes 1-12)
TTITLE4=Feels So Bad (Fixing to Die)
TTITLE5=Since I've Been Loving You (vocals only)
TTITLE6=Poor Tom (Instrumental)
TTITLE7=Friends (Bombay rehearsals)
TTITLE8=Friends (Bombay vocal take 1)
TTITLE9=Friends (Bombay vocal take 2)
TTITLE10=Sugar Mama
TTITLE11=Immigrant Song (rehearsals)
TTITLE12=Out on the Tiles (rehearsals)
TTITLE13=Bron-Y-Aur (rehearsals)
TTITLE14=Hey Hey What Can I Do (rehearsals)
EXTD=
EXTT0=
EXTT1=
EXTT2=
EXTT3=
EXTT4=
EXTT5=
EXTT6=
EXTT7=
EXTT8=
EXTT9=
EXTT10=
EXTT11=
EXTT12=
EXTT13=
EXTT14=
PLAYORDER=
